G04 Layer_Color=65535*
%FSLAX43Y43*%
%MOMM*%
G71*
G01*
G75*
%ADD12C,0.254*%
%ADD34C,0.200*%
D12*
X140335Y68326D02*
X141605D01*
Y83566D01*
X139065D02*
X141605D01*
X139065Y68326D02*
Y83566D01*
Y68326D02*
X140335D01*
X88900Y58420D02*
Y62992D01*
Y58420D02*
X104140D01*
Y67818D01*
X88900D02*
X104140D01*
X88900Y62992D02*
Y67818D01*
X72644Y58420D02*
Y62992D01*
Y58420D02*
X87884D01*
Y67818D01*
X72644D02*
X87884D01*
X72644Y62992D02*
Y67818D01*
X105664Y58420D02*
Y62992D01*
Y58420D02*
X120904D01*
Y67818D01*
X105664D02*
X120904D01*
X105664Y62992D02*
Y67818D01*
X126873Y58420D02*
Y62992D01*
Y58420D02*
X137033D01*
Y67818D01*
X126873D02*
X137033D01*
X126873Y62992D02*
Y67818D01*
X70522Y90671D02*
Y91941D01*
Y90671D02*
X111162D01*
Y93211D01*
X70522D02*
X111162D01*
X70522Y91941D02*
Y93211D01*
X140195Y85966D02*
X139687D01*
X139941D01*
Y84696D01*
X139687Y84442D01*
X139433D01*
X139179Y84696D01*
X140703Y84442D02*
X141211D01*
X140957D01*
Y85966D01*
X140703Y85712D01*
X79642Y71640D02*
X79388Y71386D01*
Y70879D01*
X79642Y70625D01*
X80658D01*
X80912Y70879D01*
Y71386D01*
X80658Y71640D01*
X80912Y72148D02*
Y72656D01*
Y72402D01*
X79388D01*
X79642Y72148D01*
X79388Y74433D02*
Y73418D01*
X80150D01*
X79896Y73926D01*
Y74180D01*
X80150Y74433D01*
X80658D01*
X80912Y74180D01*
Y73672D01*
X80658Y73418D01*
X83820Y69850D02*
X83566Y70104D01*
X83058D01*
X82804Y69850D01*
Y68834D01*
X83058Y68580D01*
X83566D01*
X83820Y68834D01*
X84328Y68580D02*
X84835D01*
X84581D01*
Y70104D01*
X84328Y69850D01*
X86359Y68580D02*
Y70104D01*
X85597Y69342D01*
X86613D01*
X89027Y69723D02*
X88773Y69977D01*
X88265D01*
X88011Y69723D01*
Y68707D01*
X88265Y68453D01*
X88773D01*
X89027Y68707D01*
X89535Y68453D02*
X90042D01*
X89788D01*
Y69977D01*
X89535Y69723D01*
X90804D02*
X91058Y69977D01*
X91566D01*
X91820Y69723D01*
Y69469D01*
X91566Y69215D01*
X91312D01*
X91566D01*
X91820Y68961D01*
Y68707D01*
X91566Y68453D01*
X91058D01*
X90804Y68707D01*
X93980Y72009D02*
X93726Y71755D01*
Y71247D01*
X93980Y70993D01*
X94996D01*
X95250Y71247D01*
Y71755D01*
X94996Y72009D01*
X95250Y72517D02*
Y73024D01*
Y72770D01*
X93726D01*
X93980Y72517D01*
X95250Y74802D02*
Y73786D01*
X94234Y74802D01*
X93980D01*
X93726Y74548D01*
Y74040D01*
X93980Y73786D01*
X83439Y80391D02*
X81915D01*
Y81153D01*
X82169Y81407D01*
X82677D01*
X82931Y81153D01*
Y80391D01*
Y80899D02*
X83439Y81407D01*
X81915Y82930D02*
X82169Y82422D01*
X82677Y81915D01*
X83185D01*
X83439Y82168D01*
Y82676D01*
X83185Y82930D01*
X82931D01*
X82677Y82676D01*
Y81915D01*
X86614Y80264D02*
X85090D01*
Y81026D01*
X85344Y81280D01*
X85852D01*
X86106Y81026D01*
Y80264D01*
Y80772D02*
X86614Y81280D01*
X85090Y82803D02*
Y81788D01*
X85852D01*
X85598Y82295D01*
Y82549D01*
X85852Y82803D01*
X86360D01*
X86614Y82549D01*
Y82041D01*
X86360Y81788D01*
X89408Y80137D02*
X87884D01*
Y80899D01*
X88138Y81153D01*
X88646D01*
X88900Y80899D01*
Y80137D01*
Y80645D02*
X89408Y81153D01*
Y82422D02*
X87884D01*
X88646Y81661D01*
Y82676D01*
X92837Y80137D02*
X91313D01*
Y80899D01*
X91567Y81153D01*
X92075D01*
X92329Y80899D01*
Y80137D01*
Y80645D02*
X92837Y81153D01*
X91567Y81661D02*
X91313Y81914D01*
Y82422D01*
X91567Y82676D01*
X91821D01*
X92075Y82422D01*
Y82168D01*
Y82422D01*
X92329Y82676D01*
X92583D01*
X92837Y82422D01*
Y81914D01*
X92583Y81661D01*
X102616Y70231D02*
X102108D01*
X102362D01*
Y68961D01*
X102108Y68707D01*
X101854D01*
X101600Y68961D01*
X104139Y70231D02*
X103124D01*
Y69469D01*
X103631Y69723D01*
X103885D01*
X104139Y69469D01*
Y68961D01*
X103885Y68707D01*
X103377D01*
X103124Y68961D01*
X73660Y70104D02*
X73152D01*
X73406D01*
Y68834D01*
X73152Y68580D01*
X72898D01*
X72644Y68834D01*
X74929Y68580D02*
Y70104D01*
X74168Y69342D01*
X75183D01*
X106680Y70104D02*
X106172D01*
X106426D01*
Y68834D01*
X106172Y68580D01*
X105918D01*
X105664Y68834D01*
X107188Y69850D02*
X107441Y70104D01*
X107949D01*
X108203Y69850D01*
Y69596D01*
X107949Y69342D01*
X107695D01*
X107949D01*
X108203Y69088D01*
Y68834D01*
X107949Y68580D01*
X107441D01*
X107188Y68834D01*
X127597Y70218D02*
X127089D01*
X127343D01*
Y68948D01*
X127089Y68694D01*
X126835D01*
X126581Y68948D01*
X129120Y68694D02*
X128104D01*
X129120Y69710D01*
Y69964D01*
X128866Y70218D01*
X128358D01*
X128104Y69964D01*
X111760Y93091D02*
Y91821D01*
X112014Y91567D01*
X112522D01*
X112776Y91821D01*
Y93091D01*
X114299Y91567D02*
X113284D01*
X114299Y92583D01*
Y92837D01*
X114045Y93091D01*
X113537D01*
X113284Y92837D01*
X50229Y90284D02*
Y91808D01*
X50736Y91300D01*
X51244Y91808D01*
Y90284D01*
X51752D02*
X52260D01*
X52006D01*
Y91808D01*
X51752Y91554D01*
X144292Y58441D02*
Y94441D01*
X44292Y58441D02*
X144292D01*
X44292D02*
Y94441D01*
X144292D01*
D34*
X83477Y71967D02*
Y73067D01*
X81877Y71967D02*
Y73067D01*
X85052Y71967D02*
Y73067D01*
X86652Y71967D02*
Y73067D01*
X89573Y72094D02*
Y73194D01*
X87973Y72094D02*
Y73194D01*
X93002Y72094D02*
Y73194D01*
X91402Y72094D02*
Y73194D01*
X83452Y76793D02*
Y77893D01*
X81902Y76793D02*
Y77893D01*
X86627Y76793D02*
Y77893D01*
X85077Y76793D02*
Y77893D01*
X89548Y76793D02*
Y77893D01*
X87998Y76793D02*
Y77893D01*
X92977Y76793D02*
Y77893D01*
X91427Y76793D02*
Y77893D01*
M02*
